# xmcd
#
# Track frame offsets:
#	150
#	13405
#	28759
#	44337
#	55517
#	67394
#	77473
#	93181
#	106334
#	123414
#	138409
#	148779
#
# Disc length: 2141 seconds
#
# Revision: 0
# Processed by: cddbd v1.5.1PL0 Copyright (c) Steve Scherf et al.
# Submitted via: dBpowerAMP V4.0
#
DISCID=a6085b0c
DTITLE=Chalino Sanchez - Coleccion de Oro Volume 3 - Con Banda
DYEAR=1900
DGENRE=Latin
TTITLE0=El Pavido Navido
TTITLE1=Ausencia Eterna
TTITLE2=Vidita Mia
TTITLE3=Ojitos Cafes
TTITLE4=A Los Angeles del Cielo
TTITLE5=La Pajarera
TTITLE6=Siguendo Tus Pasos
TTITLE7=El Bandido Generoso
TTITLE8=La Fuga de Salome
TTITLE9=El Toro Gacho Y Merced
TTITLE10=Borradita Diente de Oro
TTITLE11=La Loba del Mal
EXTD=
EXTT0=
EXTT1=
EXTT2=
EXTT3=
EXTT4=
EXTT5=
EXTT6=
EXTT7=
EXTT8=
EXTT9=
EXTT10=
EXTT11=
PLAYORDER=
